<svg width="270" height="100" viewBox="0 0 270 100" fill="none" xmlns="http://www.w3.org/2000/svg">
<path d="M116.534 56L114.54 56.1595L114.688 58H116.534V56ZM115.895 54.6705L114.601 56.1955L114.607 56.2003L114.612 56.205L115.895 54.6705ZM112.98 54.3722L113.675 56.2477L113.684 56.2442L113.694 56.2406L112.98 54.3722ZM112.298 54.8409L110.693 53.6483L110.693 53.6483L112.298 54.8409ZM112.068 55.5227L114.065 55.6307L114.067 55.5989L114.068 55.5672L112.068 55.5227ZM112.179 56.0938L110.39 56.9882L110.408 57.0244L110.428 57.0599L112.179 56.0938ZM112.605 56.5455L111.452 58.1794L111.468 58.1909L111.484 58.202L112.605 56.5455ZM114.42 57.1932L114.84 55.2376L114.831 55.2358L114.823 55.2341L114.42 57.1932ZM115.852 57.5L115.433 59.4556L115.438 59.4566L115.852 57.5ZM120.02 59.4943L118.579 60.8813L118.588 60.8903L120.02 59.4943ZM120.983 61.0114L119.103 61.6949L119.106 61.7032L119.11 61.7115L120.983 61.0114ZM121.307 62.8523L123.307 62.8622L123.307 62.8487L123.307 62.8352L121.307 62.8523ZM120.446 65.767L122.073 66.9295L122.073 66.9295L120.446 65.767ZM118.009 67.5824L117.278 65.7206L117.274 65.722L118.009 67.5824ZM110.244 67.5312L109.503 69.3889L109.506 69.3901L110.244 67.5312ZM107.619 65.4602L105.951 66.5626L105.958 66.5743L107.619 65.4602ZM106.682 61.8636V59.8636H104.674L104.682 61.8714L106.682 61.8636ZM111.182 61.8636L113.179 61.7574L113.078 59.8636H111.182V61.8636ZM111.582 63.2102L109.91 64.3075L109.91 64.3075L111.582 63.2102ZM112.588 64.0369L111.791 65.8715L111.8 65.8752L112.588 64.0369ZM115.418 64.1307L116.106 66.0084L116.106 66.0084L115.418 64.1307ZM116.193 63.6108L117.759 64.8553L117.759 64.8553L116.193 63.6108ZM116.466 62.8523L118.466 62.8923L118.466 62.851L118.465 62.8097L116.466 62.8523ZM116.202 62.1534L114.644 63.4081L114.663 63.4318L114.683 63.455L116.202 62.1534ZM115.384 61.608L114.589 63.4434L114.601 63.4484L114.612 63.4533L115.384 61.608ZM113.841 61.1477L114.269 59.1941L114.263 59.1927L113.841 61.1477ZM112.102 60.7727L111.678 62.7273L111.681 62.7278L112.102 60.7727ZM108.446 59.0938L107.115 60.587L107.126 60.5959L108.446 59.0938ZM107.125 55.8636L109.125 55.872L109.125 55.8627L109.125 55.8534L107.125 55.8636ZM108.011 52.9574L106.389 51.7876L106.388 51.7897L108.011 52.9574ZM110.509 51.0057L109.709 49.1725L109.705 49.174L110.509 51.0057ZM117.838 51.0142L117.004 52.8322L117.004 52.8322L117.838 51.0142ZM120.216 53.0085L118.538 54.0973L118.542 54.1038L118.547 54.1102L120.216 53.0085ZM121.068 56V58H123.078L123.068 55.99L121.068 56ZM118.528 55.8405C118.446 54.8238 118.032 53.8504 117.178 53.1359L114.612 56.205C114.602 56.1963 114.587 56.182 114.572 56.1624C114.557 56.1428 114.545 56.1237 114.538 56.1081C114.522 56.0754 114.534 56.0824 114.54 56.1595L118.528 55.8405ZM117.189 53.1454C116.298 52.3896 115.171 52.1932 114.182 52.1932V56.1932C114.434 56.1932 114.58 56.2201 114.649 56.2391C114.712 56.2567 114.674 56.2578 114.601 56.1955L117.189 53.1454ZM114.182 52.1932C113.552 52.1932 112.886 52.2672 112.267 52.5037L113.694 56.2406C113.69 56.242 113.724 56.2289 113.81 56.2161C113.895 56.2034 114.017 56.1932 114.182 56.1932V52.1932ZM112.285 52.4967C111.73 52.7025 111.135 53.0531 110.693 53.6483L113.904 56.0336C113.757 56.231 113.617 56.2691 113.675 56.2477L112.285 52.4967ZM110.693 53.6483C110.29 54.1911 110.083 54.8226 110.069 55.4783L114.068 55.5672C114.066 55.6284 114.056 55.7095 114.025 55.8001C113.994 55.8913 113.951 55.9705 113.904 56.0336L110.693 53.6483ZM110.071 55.4148C110.043 55.9343 110.134 56.4756 110.39 56.9882L113.968 55.1993C114.054 55.371 114.071 55.5316 114.065 55.6307L110.071 55.4148ZM110.428 57.0599C110.697 57.5487 111.073 57.9121 111.452 58.1794L113.758 54.9115C113.751 54.9061 113.842 54.9684 113.93 55.1276L110.428 57.0599ZM111.484 58.202C111.857 58.4538 112.267 58.641 112.672 58.7861L114.022 55.0207C113.824 54.9499 113.74 54.8985 113.726 54.8889L111.484 58.202ZM112.672 58.7861C113.085 58.9342 113.538 59.0537 114.018 59.1523L114.823 55.2341C114.473 55.1622 114.211 55.0885 114.022 55.0207L112.672 58.7861ZM114.001 59.1488L115.433 59.4556L116.271 55.5444L114.84 55.2376L114.001 59.1488ZM115.438 59.4566C116.288 59.6365 116.951 59.861 117.456 60.1073L119.209 56.512C118.339 56.0878 117.349 55.7726 116.267 55.5434L115.438 59.4566ZM117.456 60.1073C117.976 60.361 118.334 60.6273 118.579 60.8813L121.461 58.1074C120.83 57.4523 120.064 56.9288 119.209 56.512L117.456 60.1073ZM118.588 60.8903C118.837 61.1459 119 61.4115 119.103 61.6949L122.863 60.3279C122.557 59.4863 122.078 58.7405 121.452 58.0984L118.588 60.8903ZM119.11 61.7115C119.23 62.0333 119.303 62.413 119.307 62.8694L123.307 62.8352C123.299 61.962 123.157 61.1144 122.856 60.3112L119.11 61.7115ZM119.307 62.8424C119.303 63.6507 119.107 64.2012 118.819 64.6046L122.073 66.9295C122.922 65.742 123.299 64.3493 123.307 62.8622L119.307 62.8424ZM118.819 64.6046C118.51 65.0368 118.034 65.4239 117.278 65.7206L118.739 69.4441C120.097 68.9113 121.246 68.0882 122.073 66.9295L118.819 64.6046ZM117.274 65.722C116.517 66.021 115.515 66.2045 114.216 66.2045V70.2045C115.871 70.2045 117.398 69.9733 118.743 69.4428L117.274 65.722ZM114.216 66.2045C112.891 66.2045 111.828 66.0081 110.982 65.6724L109.506 69.3901C110.922 69.9521 112.506 70.2045 114.216 70.2045V66.2045ZM110.985 65.6737C110.204 65.3618 109.663 64.9162 109.28 64.3462L105.958 66.5743C106.826 67.8679 108.035 68.803 109.503 69.3888L110.985 65.6737ZM109.288 64.3578C108.939 63.8295 108.686 63.0419 108.682 61.8559L104.682 61.8714C104.689 63.6058 105.061 65.2159 105.951 66.5626L109.288 64.3578ZM106.682 63.8636H111.182V59.8636H106.682V63.8636ZM109.185 61.9699C109.228 62.7766 109.438 63.5872 109.91 64.3075L113.254 62.1129C113.25 62.106 113.193 62.0189 113.179 61.7574L109.185 61.9699ZM109.91 64.3075C110.38 65.0239 111.033 65.5421 111.791 65.8715L113.385 62.2024C113.28 62.1568 113.262 62.1238 113.254 62.1129L109.91 64.3075ZM111.8 65.8752C112.543 66.1937 113.344 66.3182 114.148 66.3182V62.3182C113.747 62.3182 113.508 62.2552 113.376 62.1986L111.8 65.8752ZM114.148 66.3182C114.803 66.3182 115.477 66.2392 116.106 66.0084L114.729 62.2529C114.677 62.2721 114.504 62.3182 114.148 62.3182V66.3182ZM116.106 66.0084C116.696 65.7921 117.298 65.4353 117.759 64.8553L114.628 62.3663C114.736 62.2295 114.821 62.2192 114.729 62.2529L116.106 66.0084ZM117.759 64.8553C118.209 64.2892 118.451 63.6127 118.466 62.8923L114.466 62.8123C114.468 62.7497 114.479 62.6678 114.511 62.5783C114.544 62.4887 114.587 62.4171 114.628 62.3663L117.759 64.8553ZM118.465 62.8097C118.45 62.09 118.198 61.4096 117.72 60.8518L114.683 63.455C114.625 63.3874 114.567 63.2961 114.525 63.1845C114.483 63.0734 114.468 62.972 114.466 62.8948L118.465 62.8097ZM117.759 60.8988C117.299 60.3278 116.684 59.9838 116.155 59.7626L114.612 63.4533C114.661 63.4737 114.698 63.4912 114.724 63.5047C114.75 63.5183 114.762 63.5264 114.764 63.5277C114.766 63.5291 114.755 63.5216 114.734 63.5034C114.713 63.485 114.681 63.4539 114.644 63.4081L117.759 60.8988ZM116.178 59.7725C115.631 59.5357 114.978 59.3495 114.269 59.1942L113.412 63.1013C114 63.2301 114.375 63.3506 114.589 63.4434L116.178 59.7725ZM114.263 59.1927L112.524 58.8177L111.681 62.7278L113.419 63.1028L114.263 59.1927ZM112.526 58.8182C111.207 58.532 110.332 58.0888 109.766 57.5916L107.126 60.5959C108.344 61.6668 109.907 62.343 111.678 62.7273L112.526 58.8182ZM109.777 57.6005C109.384 57.2507 109.121 56.7566 109.125 55.872L105.125 55.8553C105.117 57.6979 105.735 59.3572 107.116 60.587L109.777 57.6005ZM109.125 55.8534C109.121 55.1304 109.306 54.5823 109.635 54.1251L106.388 51.7897C105.523 52.9916 105.117 54.381 105.125 55.8739L109.125 55.8534ZM109.634 54.1272C110.001 53.6171 110.534 53.1783 111.312 52.8373L109.705 49.174C108.358 49.7649 107.226 50.6272 106.389 51.7876L109.634 54.1272ZM111.308 52.8389C112.082 52.5014 113.026 52.3068 114.182 52.3068V48.3068C112.576 48.3068 111.072 48.5782 109.709 49.1725L111.308 52.8389ZM114.182 52.3068C115.372 52.3068 116.294 52.5062 117.004 52.8322L118.672 49.1962C117.326 48.579 115.81 48.3068 114.182 48.3068V52.3068ZM117.004 52.8322C117.726 53.163 118.21 53.5908 118.538 54.0973L121.894 51.9197C121.109 50.7104 120.007 49.8086 118.672 49.1962L117.004 52.8322ZM118.547 54.1102C118.871 54.6009 119.064 55.2087 119.068 56.01L123.068 55.99C123.061 54.5072 122.686 53.1207 121.885 51.9068L118.547 54.1102ZM121.068 54H116.534V58H121.068V54ZM122.152 54.3636H120.152V56.3636H122.152V54.3636ZM122.152 50.5455V48.5455H120.152V50.5455H122.152ZM137.323 50.5455H139.323V48.5455H137.323V50.5455ZM137.323 54.3636V56.3636H139.323V54.3636H137.323ZM132.073 54.3636V52.3636H130.073V54.3636H132.073ZM132.073 68V70H134.073V68H132.073ZM127.402 68H125.402V70H127.402V68ZM127.402 54.3636H129.402V52.3636H127.402V54.3636ZM124.152 54.3636V50.5455H120.152V54.3636H124.152ZM122.152 52.5455H137.323V48.5455H122.152V52.5455ZM135.323 50.5455V54.3636H139.323V50.5455H135.323ZM137.323 52.3636H132.073V56.3636H137.323V52.3636ZM130.073 54.3636V68H134.073V54.3636H130.073ZM132.073 66H127.402V70H132.073V66ZM129.402 68V54.3636H125.402V68H129.402ZM127.402 52.3636H122.152V56.3636H127.402V52.3636ZM138.626 68H136.626V70H138.626V68ZM138.626 50.5455V48.5455H136.626V50.5455H138.626ZM151.828 53.2898L153.536 52.2495L153.536 52.2495L151.828 53.2898ZM151.802 59.6392L150.124 58.5504L150.119 58.5583L151.802 59.6392ZM149.475 61.5824L148.674 59.7501L148.67 59.7518L149.475 61.5824ZM141.49 62.2386H139.49V64.2386H141.49V62.2386ZM141.49 58.5568V56.5568H139.49V58.5568H141.49ZM146.458 58.3523L147.115 60.2413L147.123 60.2385L147.131 60.2358L146.458 58.3523ZM147.37 57.679L145.735 56.528L145.727 56.5382L145.72 56.5485L147.37 57.679ZM147.37 55.2585L145.702 56.361L145.713 56.3783L145.725 56.3954L147.37 55.2585ZM146.458 54.5597L145.73 56.4221L145.746 56.4285L145.762 56.4345L146.458 54.5597ZM143.365 54.3295V52.3295H141.365V54.3295H143.365ZM143.365 68V70H145.365V68H143.365ZM148.853 59.9886L150.61 59.032L150.041 57.9886H148.853V59.9886ZM153.217 68V70H156.584L154.973 67.0433L153.217 68ZM148.069 68L146.303 68.9392L146.868 70H148.069V68ZM143.808 59.9886V57.9886H140.479L142.042 60.9279L143.808 59.9886ZM140.626 68V50.5455H136.626V68H140.626ZM138.626 52.5455H146.16V48.5455H138.626V52.5455ZM146.16 52.5455C147.213 52.5455 148.037 52.7364 148.687 53.0521L150.434 49.4536C149.141 48.8261 147.698 48.5455 146.16 48.5455V52.5455ZM148.687 53.0521C149.328 53.3632 149.788 53.7853 150.119 54.33L153.536 52.2495C152.788 51.0215 151.736 50.0856 150.434 49.4536L148.687 53.0521ZM150.119 54.33C150.434 54.847 150.637 55.534 150.637 56.4773H154.637C154.637 54.9432 154.301 53.5053 153.536 52.2495L150.119 54.33ZM150.637 56.4773C150.637 57.4272 150.428 58.0822 150.124 58.5504L153.48 60.728C154.289 59.4803 154.637 58.0273 154.637 56.4773H150.637ZM150.119 58.5583C149.797 59.0607 149.339 59.459 148.674 59.7501L150.277 63.4147C151.612 62.8308 152.705 61.9337 153.485 60.7202L150.119 58.5583ZM148.67 59.7518C147.98 60.0555 147.102 60.2386 145.99 60.2386V64.2386C147.536 64.2386 148.983 63.9843 150.281 63.413L148.67 59.7518ZM145.99 60.2386H141.49V64.2386H145.99V60.2386ZM143.49 62.2386V58.5568H139.49V62.2386H143.49ZM141.49 60.5568H145.035V56.5568H141.49V60.5568ZM145.035 60.5568C145.744 60.5568 146.454 60.4714 147.115 60.2413L145.801 56.4633C145.679 56.5059 145.44 56.5568 145.035 56.5568V60.5568ZM147.131 60.2358C147.87 59.972 148.54 59.51 149.02 58.8094L145.72 56.5485C145.731 56.5331 145.744 56.5175 145.758 56.5027C145.772 56.4879 145.786 56.4765 145.797 56.4684C145.819 56.4517 145.822 56.4559 145.786 56.4688L147.131 60.2358ZM149.006 58.83C149.524 58.0938 149.694 57.2541 149.694 56.4773H145.694C145.694 56.5812 145.683 56.6261 145.682 56.628C145.682 56.6282 145.685 56.6175 145.693 56.5987C145.702 56.5797 145.715 56.5552 145.735 56.528L149.006 58.83ZM149.694 56.4773C149.694 55.6981 149.525 54.8594 149.016 54.1217L145.725 56.3954C145.689 56.3429 145.679 56.3072 145.68 56.3112C145.682 56.3187 145.694 56.369 145.694 56.4773H149.694ZM149.039 54.156C148.569 53.4441 147.903 52.9629 147.155 52.6848L145.762 56.4345C145.794 56.4464 145.79 56.4496 145.768 56.4326C145.757 56.4245 145.745 56.4137 145.733 56.4002C145.72 56.3868 145.71 56.3733 145.702 56.361L149.039 54.156ZM147.187 52.6972C146.501 52.4288 145.765 52.3295 145.035 52.3295V56.3295C145.419 56.3295 145.631 56.3837 145.73 56.4221L147.187 52.6972ZM145.035 52.3295H143.365V56.3295H145.035V52.3295ZM141.365 54.3295V68H145.365V54.3295H141.365ZM143.365 66H138.626V70H143.365V66ZM147.097 60.9453L151.46 68.9567L154.973 67.0433L150.61 59.032L147.097 60.9453ZM153.217 66H148.069V70H153.217V66ZM149.835 67.0608L145.574 59.0494L142.042 60.9279L146.303 68.9392L149.835 67.0608ZM143.808 61.9886H148.853V57.9886H143.808V61.9886ZM169.953 64.1903L171.692 65.1786L171.693 65.1754L169.953 64.1903ZM166.893 67.2159L167.831 68.9824L167.837 68.9791L166.893 67.2159ZM158.285 67.2074L157.332 68.9656L157.341 68.9706L158.285 67.2074ZM155.234 64.1733L153.49 65.1528L153.495 65.1616L155.234 64.1733ZM155.234 54.3636L153.493 53.3785L153.492 53.381L155.234 54.3636ZM158.285 51.3381L159.226 53.1028L159.229 53.1013L158.285 51.3381ZM166.893 51.3381L165.949 53.1013L165.955 53.1045L166.893 51.3381ZM169.953 54.3636L168.212 55.3487L168.214 55.3519L169.953 54.3636ZM165.794 56.6307L163.923 57.3378L163.926 57.3467L163.93 57.3556L165.794 56.6307ZM164.575 54.9943L163.426 56.6311L163.436 56.6381L163.446 56.6449L164.575 54.9943ZM160.612 54.9943L161.749 56.6393L161.753 56.6368L160.612 54.9943ZM159.393 56.6307L157.527 55.9107L157.524 55.9187L159.393 56.6307ZM159.393 61.9233L157.522 62.6304L157.526 62.6393L157.529 62.6482L159.393 61.9233ZM160.612 63.5597L159.463 65.1965L159.472 65.2034L159.482 65.2103L160.612 63.5597ZM164.575 63.5597L165.712 65.2047L165.716 65.2022L164.575 63.5597ZM165.794 61.9233L163.928 61.2034L163.925 61.2113L165.794 61.9233ZM169.086 59.2727C169.086 60.961 168.758 62.2404 168.212 63.2053L171.693 65.1754C172.659 63.4698 173.086 61.4708 173.086 59.2727H169.086ZM168.214 63.2021C167.635 64.2207 166.883 64.9525 165.949 65.4527L167.837 68.9791C169.471 68.1044 170.759 66.8191 171.692 65.1786L168.214 63.2021ZM165.955 65.4495C164.984 65.9649 163.879 66.2386 162.598 66.2386V70.2386C164.475 70.2386 166.234 69.8305 167.831 68.9823L165.955 65.4495ZM162.598 66.2386C161.305 66.2386 160.197 65.9622 159.229 65.4442L157.341 68.9706C158.942 69.8276 160.708 70.2386 162.598 70.2386V66.2386ZM159.238 65.4492C158.306 64.9436 157.554 64.2071 156.973 63.185L153.495 65.1616C154.426 66.7985 155.707 68.0848 157.332 68.9656L159.238 65.4492ZM156.978 63.1938C156.434 62.2262 156.109 60.9496 156.109 59.2727H152.109C152.109 61.4595 152.534 63.45 153.49 65.1528L156.978 63.1938ZM156.109 59.2727C156.109 57.5817 156.435 56.3048 156.976 55.3463L153.492 53.381C152.533 55.0816 152.109 57.0774 152.109 59.2727H156.109ZM156.975 55.3487C157.555 54.3236 158.303 53.5952 159.226 53.1028L157.344 49.5734C155.71 50.4446 154.425 51.7332 153.493 53.3785L156.975 55.3487ZM159.229 53.1013C160.197 52.5833 161.305 52.3068 162.598 52.3068V48.3068C160.708 48.3068 158.942 48.7179 157.341 49.5749L159.229 53.1013ZM162.598 52.3068C163.876 52.3068 164.979 52.5821 165.949 53.1013L167.837 49.5749C166.239 48.719 164.478 48.3068 162.598 48.3068V52.3068ZM165.955 53.1045C166.884 53.5976 167.633 54.3259 168.212 55.3487L171.693 53.3785C170.761 51.731 169.471 50.4422 167.831 49.5716L165.955 53.1045ZM168.214 55.3519C168.758 56.3092 169.086 57.584 169.086 59.2727H173.086C173.086 57.0751 172.659 55.0772 171.692 53.3754L168.214 55.3519ZM168.211 59.2727C168.211 58.063 168.052 56.9198 167.658 55.9058L163.93 57.3556C164.092 57.7734 164.211 58.3915 164.211 59.2727H168.211ZM167.665 55.9236C167.274 54.8895 166.639 53.9834 165.704 53.3437L163.446 56.6449C163.59 56.7439 163.768 56.9287 163.923 57.3378L167.665 55.9236ZM165.724 53.3575C164.79 52.7018 163.708 52.4318 162.598 52.4318V56.4318C163.055 56.4318 163.291 56.5368 163.426 56.6311L165.724 53.3575ZM162.598 52.4318C161.486 52.4318 160.406 52.7021 159.471 53.3518L161.753 56.6368C161.897 56.5366 162.141 56.4318 162.598 56.4318V52.4318ZM159.474 53.3493C158.551 53.9877 157.922 54.8877 157.527 55.9108L161.259 57.3506C161.421 56.9305 161.604 56.7396 161.749 56.6393L159.474 53.3493ZM157.524 55.9187C157.14 56.9283 156.984 58.0668 156.984 59.2727H160.984C160.984 58.3878 161.101 57.7649 161.262 57.3427L157.524 55.9187ZM156.984 59.2727C156.984 60.4795 157.14 61.6183 157.522 62.6304L161.264 61.2162C161.101 60.7852 160.984 60.1569 160.984 59.2727H156.984ZM157.529 62.6482C157.925 63.6654 158.552 64.5569 159.463 65.1965L161.761 61.9228C161.604 61.8124 161.418 61.613 161.257 61.1984L157.529 62.6482ZM159.482 65.2103C160.416 65.8493 161.492 66.1136 162.598 66.1136V62.1136C162.135 62.1136 161.887 62.0087 161.741 61.909L159.482 65.2103ZM162.598 66.1136C163.702 66.1136 164.78 65.8496 165.712 65.2047L163.437 61.9146C163.302 62.0084 163.061 62.1136 162.598 62.1136V66.1136ZM165.716 65.2022C166.639 64.5612 167.271 63.6636 167.663 62.6353L163.925 61.2113C163.771 61.6148 163.591 61.8082 163.434 61.9171L165.716 65.2022ZM167.66 62.6432C168.052 61.6268 168.211 60.4832 168.211 59.2727H164.211C164.211 60.1532 164.092 60.7766 163.928 61.2034L167.66 62.6432ZM187.901 50.5455H189.901V48.5455H187.901V50.5455ZM187.901 68V70H189.901V68H187.901ZM183.946 68L182.299 69.1333L182.895 70H183.946V68ZM177.64 58.8295L179.288 57.6962L178.692 56.8295H177.64V58.8295ZM177.537 58.8295V56.8295H175.537V58.8295H177.537ZM177.537 68V70H179.537V68H177.537ZM172.799 68H170.799V70H172.799V68ZM172.799 50.5455V48.5455H170.799V50.5455H172.799ZM176.821 50.5455L178.476 49.4218L177.881 48.5455H176.821V50.5455ZM183.026 59.6818L181.371 60.8054L181.967 61.6818H183.026V59.6818ZM183.162 59.6818V61.6818H185.162V59.6818H183.162ZM183.162 50.5455V48.5455H181.162V50.5455H183.162ZM185.901 50.5455V68H189.901V50.5455H185.901ZM187.901 66H183.946V70H187.901V66ZM185.594 66.8667L179.288 57.6962L175.992 59.9629L182.299 69.1333L185.594 66.8667ZM177.64 56.8295H177.537V60.8295H177.64V56.8295ZM175.537 58.8295V68H179.537V58.8295H175.537ZM177.537 66H172.799V70H177.537V66ZM174.799 68V50.5455H170.799V68H174.799ZM172.799 52.5455H176.821V48.5455H172.799V52.5455ZM175.167 51.6691L181.371 60.8054L184.681 58.5582L178.476 49.4218L175.167 51.6691ZM183.026 61.6818H183.162V57.6818H183.026V61.6818ZM185.162 59.6818V50.5455H181.162V59.6818H185.162ZM183.162 52.5455H187.901V48.5455H183.162V52.5455ZM204.765 50.5455H206.765V48.5455H204.765V50.5455ZM204.765 68V70H206.765V68H204.765ZM200.81 68L199.162 69.1333L199.758 70H200.81V68ZM194.503 58.8295L196.151 57.6962L195.555 56.8295H194.503V58.8295ZM194.401 58.8295V56.8295H192.401V58.8295H194.401ZM194.401 68V70H196.401V68H194.401ZM189.662 68H187.662V70H189.662V68ZM189.662 50.5455V48.5455H187.662V50.5455H189.662ZM193.685 50.5455L195.34 49.4218L194.745 48.5455H193.685V50.5455ZM199.89 59.6818L198.235 60.8054L198.83 61.6818H199.89V59.6818ZM200.026 59.6818V61.6818H202.026V59.6818H200.026ZM200.026 50.5455V48.5455H198.026V50.5455H200.026ZM202.765 50.5455V68H206.765V50.5455H202.765ZM204.765 66H200.81V70H204.765V66ZM202.458 66.8667L196.151 57.6962L192.856 59.9629L199.162 69.1333L202.458 66.8667ZM194.503 56.8295H194.401V60.8295H194.503V56.8295ZM192.401 58.8295V68H196.401V58.8295H192.401ZM194.401 66H189.662V70H194.401V66ZM191.662 68V50.5455H187.662V68H191.662ZM189.662 52.5455H193.685V48.5455H189.662V52.5455ZM192.031 51.6691L198.235 60.8054L201.544 58.5582L195.34 49.4218L192.031 51.6691ZM199.89 61.6818H200.026V57.6818H199.89V61.6818ZM202.026 59.6818V50.5455H198.026V59.6818H202.026ZM200.026 52.5455H204.765V48.5455H200.026V52.5455ZM211.265 50.5455H213.265V48.5455H211.265V50.5455ZM211.265 68V70H213.265V68H211.265ZM206.526 68H204.526V70H206.526V68ZM206.526 50.5455V48.5455H204.526V50.5455H206.526ZM209.265 50.5455V68H213.265V50.5455H209.265ZM211.265 66H206.526V70H211.265V66ZM208.526 68V50.5455H204.526V68H208.526ZM206.526 52.5455H211.265V48.5455H206.526V52.5455ZM229.326 57.0909V59.0909H231.501L231.319 56.924L229.326 57.0909ZM224.519 57.0909L222.527 57.2617L222.683 59.0909H224.519V57.0909ZM224.247 56.0085L222.415 56.8118L222.421 56.8252L222.427 56.8385L224.247 56.0085ZM223.65 55.1733L222.269 56.62L222.286 56.636L222.303 56.6517L223.65 55.1733ZM222.738 54.6278L222.052 56.5066L222.065 56.5114L222.079 56.516L222.738 54.6278ZM219.499 55.0114L218.351 53.3737L218.343 53.3793L219.499 55.0114ZM218.255 56.6733L216.394 55.9406L216.389 55.9534L218.255 56.6733ZM218.264 61.9574L216.403 62.6901L216.406 62.6989L216.41 62.7078L218.264 61.9574ZM219.516 63.5767L218.407 65.2408L218.413 65.2448L218.419 65.2488L219.516 63.5767ZM222.661 63.9517L223.256 65.8612L223.27 65.8568L223.284 65.8522L222.661 63.9517ZM223.565 63.4659L224.835 65.0108L224.835 65.0108L223.565 63.4659ZM224.187 62.7074L222.432 61.7473L222.426 61.7592L224.187 62.7074ZM224.519 61.6932L224.533 59.6932L222.801 59.6809L222.542 61.3936L224.519 61.6932ZM229.326 61.7273L231.32 61.8807L231.485 59.7425L229.34 59.7273L229.326 61.7273ZM228.704 63.9858L230.514 64.8367L230.516 64.8316L228.704 63.9858ZM227.178 66.0994L228.58 67.526L228.58 67.5259L227.178 66.0994ZM217.07 67.2074L216.117 68.9653L216.12 68.9671L217.07 67.2074ZM214.062 64.1733L212.309 65.1357L212.312 65.1414L214.062 64.1733ZM214.087 54.3636L215.829 55.3463L215.831 55.3431L214.087 54.3636ZM217.122 51.3381L218.066 53.101L218.072 53.0977L217.122 51.3381ZM224.426 50.7585L225.044 48.8565L225.044 48.8565L224.426 50.7585ZM226.863 52.0795L225.586 53.6191L225.594 53.6252L226.863 52.0795ZM228.551 54.2017L226.767 55.1058L226.767 55.1058L228.551 54.2017ZM229.326 55.0909H224.519V59.0909H229.326V55.0909ZM226.512 56.9201C226.461 56.3218 226.32 55.7343 226.066 55.1785L222.427 56.8385C222.469 56.9305 222.51 57.0646 222.527 57.2617L226.512 56.9201ZM226.078 55.2052C225.826 54.6308 225.464 54.1208 224.997 53.6949L222.303 56.6517C222.347 56.6917 222.383 56.7385 222.415 56.8118L226.078 55.2052ZM225.031 53.7266C224.555 53.2726 223.998 52.9495 223.397 52.7397L222.079 56.516C222.194 56.5562 222.245 56.5967 222.269 56.62L225.031 53.7266ZM223.424 52.7491C222.808 52.5244 222.164 52.4318 221.519 52.4318V56.4318C221.784 56.4318 221.952 56.4699 222.052 56.5066L223.424 52.7491ZM221.519 52.4318C220.39 52.4318 219.297 52.7111 218.351 53.3737L220.647 56.649C220.804 56.5389 221.058 56.4318 221.519 56.4318V52.4318ZM218.343 53.3793C217.432 54.0248 216.797 54.9164 216.394 55.9406L220.116 57.406C220.281 56.987 220.476 56.7707 220.655 56.6434L218.343 53.3793ZM216.389 55.9534C215.999 56.9633 215.837 58.087 215.837 59.2727H219.837C219.837 58.4357 219.954 57.8265 220.121 57.3932L216.389 55.9534ZM215.837 59.2727C215.837 60.5035 215.999 61.6651 216.403 62.6901L220.125 61.2247C219.96 60.8065 219.837 60.1783 219.837 59.2727H215.837ZM216.41 62.7078C216.823 63.7282 217.471 64.6169 218.407 65.2408L220.626 61.9126C220.471 61.8093 220.284 61.6183 220.117 61.207L216.41 62.7078ZM218.419 65.2488C219.344 65.856 220.398 66.1136 221.485 66.1136V62.1136C221.038 62.1136 220.779 62.0133 220.614 61.9046L218.419 65.2488ZM221.485 66.1136C222.084 66.1136 222.682 66.04 223.256 65.8612L222.067 62.0422C221.947 62.0793 221.761 62.1136 221.485 62.1136V66.1136ZM223.284 65.8522C223.843 65.6691 224.369 65.394 224.835 65.0108L222.295 61.9211C222.249 61.9583 222.173 62.0071 222.038 62.0512L223.284 65.8522ZM224.835 65.0108C225.294 64.6331 225.667 64.1767 225.948 63.6556L222.426 61.7592C222.388 61.829 222.347 61.8782 222.295 61.9211L224.835 65.0108ZM225.941 63.6674C226.23 63.1405 226.408 62.5751 226.497 61.9928L222.542 61.3936C222.516 61.5613 222.474 61.672 222.432 61.7474L225.941 63.6674ZM224.505 63.6931L229.312 63.7272L229.34 59.7273L224.533 59.6932L224.505 63.6931ZM227.332 61.5739C227.296 62.041 227.162 62.5602 226.892 63.14L230.516 64.8316C230.962 63.8773 231.242 62.8908 231.32 61.8807L227.332 61.5739ZM226.894 63.1349C226.646 63.6616 226.283 64.1751 225.776 64.673L228.58 67.5259C229.392 66.7284 230.046 65.8327 230.514 64.8367L226.894 63.1349ZM225.777 64.6729C225.334 65.108 224.754 65.4902 223.997 65.7974L225.502 69.5037C226.677 69.0268 227.716 68.3749 228.58 67.526L225.777 64.6729ZM223.997 65.7974C223.318 66.0732 222.46 66.2386 221.383 66.2386V70.2386C222.862 70.2386 224.249 70.012 225.502 69.5037L223.997 65.7974ZM221.383 66.2386C220.076 66.2386 218.971 65.961 218.021 65.4477L216.12 68.9671C217.715 69.8287 219.485 70.2386 221.383 70.2386V66.2386ZM218.024 65.4495C217.112 64.9548 216.377 64.2271 215.812 63.2052L212.312 65.1414C213.224 66.79 214.494 68.085 216.117 68.9653L218.024 65.4495ZM215.815 63.2109C215.282 62.2394 214.962 60.9565 214.962 59.2727H210.962C210.962 61.4526 211.376 63.4367 212.309 65.1357L215.815 63.2109ZM214.962 59.2727C214.962 57.5817 215.289 56.3048 215.829 55.3463L212.345 53.381C211.386 55.0816 210.962 57.0774 210.962 59.2727H214.962ZM215.831 55.3431C216.407 54.3187 217.15 53.592 218.066 53.101L216.177 49.5751C214.548 50.4478 213.268 51.7381 212.344 53.3842L215.831 55.3431ZM218.072 53.0977C219.029 52.581 220.118 52.3068 221.383 52.3068V48.3068C219.511 48.3068 217.76 48.7201 216.171 49.5784L218.072 53.0977ZM221.383 52.3068C222.302 52.3068 223.105 52.4322 223.807 52.6605L225.044 48.8565C223.894 48.4825 222.668 48.3068 221.383 48.3068V52.3068ZM223.807 52.6605C224.51 52.8892 225.096 53.2123 225.586 53.6191L228.14 50.54C227.233 49.7877 226.193 49.2301 225.044 48.8565L223.807 52.6605ZM225.594 53.6252C226.069 54.0157 226.46 54.5013 226.767 55.1058L230.335 53.2976C229.789 52.2202 229.054 51.2911 228.132 50.5339L225.594 53.6252ZM226.767 55.1058C227.059 55.6839 227.26 56.3901 227.333 57.2579L231.319 56.924C231.21 55.6213 230.894 54.4013 230.335 53.2976L226.767 55.1058ZM231.064 68H229.064V70H231.064V68ZM231.064 65.375L229.464 64.1758L229.064 64.7089V65.375H231.064ZM239.314 54.3636L240.915 55.5628L243.312 52.3636H239.314V54.3636ZM231.098 54.3636H229.098V56.3636H231.098V54.3636ZM231.098 50.5455V48.5455H229.098V50.5455H231.098ZM245.348 50.5455H247.348V48.5455H245.348V50.5455ZM245.348 53.1705L246.949 54.3697L247.348 53.8366V53.1705H245.348ZM237.098 64.1818L235.498 62.9826L233.101 66.1818H237.098V64.1818ZM245.314 64.1818H247.314V62.1818H245.314V64.1818ZM245.314 68V70H247.314V68H245.314ZM233.064 68V65.375H229.064V68H233.064ZM232.665 66.5742L240.915 55.5628L237.714 53.1644L229.464 64.1758L232.665 66.5742ZM239.314 52.3636H231.098V56.3636H239.314V52.3636ZM233.098 54.3636V50.5455H229.098V54.3636H233.098ZM231.098 52.5455H245.348V48.5455H231.098V52.5455ZM243.348 50.5455V53.1705H247.348V50.5455H243.348ZM243.748 51.9712L235.498 62.9826L238.699 65.381L246.949 54.3697L243.748 51.9712ZM237.098 66.1818H245.314V62.1818H237.098V66.1818ZM243.314 64.1818V68H247.314V64.1818H243.314ZM245.314 66H231.064V70H245.314V66ZM246.464 50.5455V48.5455H243.124L244.701 51.4898L246.464 50.5455ZM251.748 50.5455L253.551 49.6789L253.006 48.5455H251.748V50.5455ZM255.157 57.6364L253.355 58.503L253.9 59.6364H255.157V57.6364ZM255.294 57.6364V59.6364H256.551L257.096 58.503L255.294 57.6364ZM258.703 50.5455V48.5455H257.445L256.9 49.6789L258.703 50.5455ZM263.987 50.5455L265.75 51.4898L267.327 48.5455H263.987V50.5455ZM257.578 62.5114L255.815 61.5671L255.578 62.0095V62.5114H257.578ZM257.578 68V70H259.578V68H257.578ZM252.873 68H250.873V70H252.873V68ZM252.873 62.5114H254.873V62.0095L254.636 61.5671L252.873 62.5114ZM246.464 52.5455H251.748V48.5455H246.464V52.5455ZM249.946 51.412L253.355 58.503L256.96 56.7698L253.551 49.6789L249.946 51.412ZM255.157 59.6364H255.294V55.6364H255.157V59.6364ZM257.096 58.503L260.505 51.412L256.9 49.6789L253.491 56.7698L257.096 58.503ZM258.703 52.5455H263.987V48.5455H258.703V52.5455ZM262.224 49.6012L255.815 61.5671L259.341 63.4557L265.75 51.4898L262.224 49.6012ZM255.578 62.5114V68H259.578V62.5114H255.578ZM257.578 66H252.873V70H257.578V66ZM254.873 68V62.5114H250.873V68H254.873ZM254.636 61.5671L248.227 49.6012L244.701 51.4898L251.11 63.4557L254.636 61.5671Z" fill="url(#paint0_radial_1_19)"/>
<mask id="mask0_1_19" style="mask-type:alpha" maskUnits="userSpaceOnUse" x="0" y="0" width="241" height="100">
<path fill-rule="evenodd" clip-rule="evenodd" d="M129.136 18.7166C153.546 22.0606 156.564 13.0954 176.254 20.943C194.125 28.0652 230.117 24.9648 239.227 35.3553C248.14 45.5194 220.873 53.9171 214.472 64.5294C207.804 75.5833 178.513 75.5574 160.709 83.0532C142.958 90.5261 146.362 98.0422 123.7 95.2549C104.61 92.9071 105.814 91.4975 88.4585 86.9356C70.57 85.5763 64.0392 96.8736 49.3863 99.1373C44.034 100.247 12.9905 104.683 2.82104 73.6245C-7.3484 42.5655 9.77906 -11.2331 57.4149 2.07789C105.051 15.3889 105.109 15.425 129.136 18.7166Z" fill="#C4C4C4"/>
</mask>
<g mask="url(#mask0_1_19)">
<rect x="-8" width="300" height="102.041" rx="51.0204" fill="url(#paint1_radial_1_19)"/>
<path fill-rule="evenodd" clip-rule="evenodd" d="M26.9297 22H78.3203C81.594 22 84.25 24.656 84.25 27.9297V71.4141C84.25 74.6878 81.594 77.3438 78.3203 77.3438H26.9297C23.656 77.3438 21 74.6878 21 71.4141V27.9297C21 24.656 23.656 22 26.9297 22ZM28.9062 41.7656H76.3438V31.3887C76.3438 30.5733 75.6767 29.9063 74.8613 29.9063H30.3887C29.5733 29.9063 28.9062 30.5733 28.9062 31.3887V41.7656ZM55.3658 52.8344H59.6352C60.421 52.8344 61.0583 53.4717 61.0583 54.2575V57.1038C61.0583 57.8896 60.421 58.5269 59.6352 58.5269H55.3658V68.4888C55.3658 69.2746 54.7285 69.9119 53.9427 69.9119H51.0965C50.3106 69.9119 49.6733 69.2746 49.6733 68.4888V58.5269H45.404C44.6181 58.5269 43.9808 57.8896 43.9808 57.1038V54.2575C43.9808 53.4717 44.6181 52.8344 45.404 52.8344H49.6733V48.565C49.6733 47.7792 50.3106 47.1419 51.0965 47.1419H53.9427C54.7285 47.1419 55.3658 47.7792 55.3658 48.565V52.8344Z" fill="white"/>
<line x1="95.75" y1="59" x2="95.75" y2="41" stroke="white" stroke-width="0.5"/>
</g>
<path d="M116.534 56C116.489 55.4318 116.276 54.9886 115.895 54.6705C115.52 54.3523 114.949 54.1932 114.182 54.1932C113.693 54.1932 113.293 54.2528 112.98 54.3722C112.673 54.4858 112.446 54.642 112.298 54.8409C112.151 55.0398 112.074 55.267 112.068 55.5227C112.057 55.733 112.094 55.9233 112.179 56.0938C112.27 56.2585 112.412 56.4091 112.605 56.5455C112.798 56.6761 113.045 56.7955 113.347 56.9034C113.648 57.0114 114.006 57.108 114.42 57.1932L115.852 57.5C116.818 57.7045 117.645 57.9744 118.332 58.3097C119.02 58.6449 119.582 59.0398 120.02 59.4943C120.457 59.9432 120.778 60.4489 120.983 61.0114C121.193 61.5739 121.301 62.1875 121.307 62.8523C121.301 64 121.014 64.9716 120.446 65.767C119.878 66.5625 119.065 67.1676 118.009 67.5824C116.957 67.9972 115.693 68.2045 114.216 68.2045C112.699 68.2045 111.375 67.9801 110.244 67.5312C109.119 67.0824 108.244 66.392 107.619 65.4602C107 64.5227 106.688 63.3239 106.682 61.8636H111.182C111.21 62.3977 111.344 62.8466 111.582 63.2102C111.821 63.5739 112.156 63.8494 112.588 64.0369C113.026 64.2244 113.545 64.3182 114.148 64.3182C114.653 64.3182 115.077 64.2557 115.418 64.1307C115.759 64.0057 116.017 63.8324 116.193 63.6108C116.369 63.3892 116.46 63.1364 116.466 62.8523C116.46 62.5852 116.372 62.3523 116.202 62.1534C116.037 61.9489 115.764 61.767 115.384 61.608C115.003 61.4432 114.489 61.2898 113.841 61.1477L112.102 60.7727C110.557 60.4375 109.338 59.8778 108.446 59.0938C107.56 58.304 107.119 57.2273 107.125 55.8636C107.119 54.7557 107.415 53.7869 108.011 52.9574C108.614 52.1222 109.446 51.4716 110.509 51.0057C111.577 50.5398 112.801 50.3068 114.182 50.3068C115.591 50.3068 116.81 50.5426 117.838 51.0142C118.866 51.4858 119.659 52.1506 120.216 53.0085C120.778 53.8608 121.063 54.858 121.068 56H116.534ZM122.152 54.3636V50.5455H137.323V54.3636H132.073V68H127.402V54.3636H122.152ZM138.626 68V50.5455H146.16C147.455 50.5455 148.589 50.7812 149.561 51.2528C150.532 51.7244 151.288 52.4034 151.828 53.2898C152.367 54.1761 152.637 55.2386 152.637 56.4773C152.637 57.7273 152.359 58.7812 151.802 59.6392C151.251 60.4972 150.475 61.1449 149.475 61.5824C148.481 62.0199 147.319 62.2386 145.99 62.2386H141.49V58.5568H145.035C145.592 58.5568 146.066 58.4886 146.458 58.3523C146.856 58.2102 147.16 57.9858 147.37 57.679C147.586 57.3722 147.694 56.9716 147.694 56.4773C147.694 55.9773 147.586 55.571 147.37 55.2585C147.16 54.9403 146.856 54.7074 146.458 54.5597C146.066 54.4062 145.592 54.3295 145.035 54.3295H143.365V68H138.626ZM148.853 59.9886L153.217 68H148.069L143.808 59.9886H148.853ZM171.086 59.2727C171.086 61.2159 170.708 62.8551 169.953 64.1903C169.197 65.5199 168.177 66.5284 166.893 67.2159C165.609 67.8977 164.177 68.2386 162.598 68.2386C161.007 68.2386 159.569 67.8949 158.285 67.2074C157.007 66.5142 155.99 65.5028 155.234 64.1733C154.484 62.8381 154.109 61.2045 154.109 59.2727C154.109 57.3295 154.484 55.6932 155.234 54.3636C155.99 53.0284 157.007 52.0199 158.285 51.3381C159.569 50.6506 161.007 50.3068 162.598 50.3068C164.177 50.3068 165.609 50.6506 166.893 51.3381C168.177 52.0199 169.197 53.0284 169.953 54.3636C170.708 55.6932 171.086 57.3295 171.086 59.2727ZM166.211 59.2727C166.211 58.2273 166.072 57.3466 165.794 56.6307C165.521 55.9091 165.115 55.3636 164.575 54.9943C164.041 54.6193 163.382 54.4318 162.598 54.4318C161.814 54.4318 161.152 54.6193 160.612 54.9943C160.078 55.3636 159.672 55.9091 159.393 56.6307C159.12 57.3466 158.984 58.2273 158.984 59.2727C158.984 60.3182 159.12 61.2017 159.393 61.9233C159.672 62.6392 160.078 63.1847 160.612 63.5597C161.152 63.929 161.814 64.1136 162.598 64.1136C163.382 64.1136 164.041 63.929 164.575 63.5597C165.115 63.1847 165.521 62.6392 165.794 61.9233C166.072 61.2017 166.211 60.3182 166.211 59.2727ZM187.901 50.5455V68H183.946L177.64 58.8295H177.537V68H172.799V50.5455H176.821L183.026 59.6818H183.162V50.5455H187.901ZM204.765 50.5455V68H200.81L194.503 58.8295H194.401V68H189.662V50.5455H193.685L199.89 59.6818H200.026V50.5455H204.765ZM211.265 50.5455V68H206.526V50.5455H211.265ZM229.326 57.0909H224.519C224.485 56.6932 224.394 56.3324 224.247 56.0085C224.104 55.6847 223.906 55.4062 223.65 55.1733C223.4 54.9347 223.096 54.7528 222.738 54.6278C222.38 54.4972 221.974 54.4318 221.519 54.4318C220.724 54.4318 220.051 54.625 219.499 55.0114C218.954 55.3977 218.539 55.9517 218.255 56.6733C217.977 57.3949 217.837 58.2614 217.837 59.2727C217.837 60.3409 217.979 61.2358 218.264 61.9574C218.553 62.6733 218.971 63.2131 219.516 63.5767C220.062 63.9347 220.718 64.1136 221.485 64.1136C221.923 64.1136 222.315 64.0597 222.661 63.9517C223.008 63.8381 223.309 63.6761 223.565 63.4659C223.82 63.2557 224.028 63.0028 224.187 62.7074C224.352 62.4062 224.462 62.0682 224.519 61.6932L229.326 61.7273C229.269 62.4659 229.062 63.2187 228.704 63.9858C228.346 64.7472 227.837 65.4517 227.178 66.0994C226.525 66.7415 225.715 67.2585 224.749 67.6506C223.783 68.0426 222.661 68.2386 221.383 68.2386C219.781 68.2386 218.343 67.8949 217.07 67.2074C215.803 66.5199 214.801 65.5085 214.062 64.1733C213.329 62.8381 212.962 61.2045 212.962 59.2727C212.962 57.3295 213.337 55.6932 214.087 54.3636C214.837 53.0284 215.849 52.0199 217.122 51.3381C218.394 50.6506 219.815 50.3068 221.383 50.3068C222.485 50.3068 223.499 50.4574 224.426 50.7585C225.352 51.0597 226.164 51.5 226.863 52.0795C227.562 52.6534 228.124 53.3608 228.551 54.2017C228.977 55.0426 229.235 56.0057 229.326 57.0909ZM231.064 68V65.375L239.314 54.3636H231.098V50.5455H245.348V53.1705L237.098 64.1818H245.314V68H231.064ZM246.464 50.5455H251.748L255.157 57.6364H255.294L258.703 50.5455H263.987L257.578 62.5114V68H252.873V62.5114L246.464 50.5455Z" fill="white"/>
<path d="M111.898 35.4545C111.849 34.9687 111.635 34.5824 111.254 34.2955C110.874 34.0085 110.395 33.8651 109.818 33.8651C109.412 33.8651 109.054 33.9347 108.744 34.0739C108.438 34.2131 108.196 34.4062 108.02 34.6534C107.847 34.8977 107.76 35.1761 107.76 35.4886C107.76 35.7188 107.81 35.9205 107.909 36.0938C108.009 36.267 108.142 36.4162 108.31 36.5412C108.48 36.6634 108.668 36.7685 108.872 36.8565C109.08 36.9446 109.288 37.0185 109.499 37.0781L110.419 37.3423C110.697 37.419 110.976 37.517 111.254 37.6364C111.533 37.7557 111.787 37.9062 112.017 38.0881C112.25 38.267 112.436 38.4872 112.575 38.7486C112.717 39.0071 112.788 39.3182 112.788 39.6818C112.788 40.1477 112.668 40.5668 112.426 40.9389C112.185 41.3111 111.838 41.6065 111.386 41.8253C110.935 42.0412 110.393 42.1491 109.763 42.1491C109.169 42.1491 108.653 42.0511 108.216 41.8551C107.778 41.6562 107.435 41.3821 107.185 41.0327C106.935 40.6832 106.794 40.2784 106.763 39.8182H107.581C107.609 40.1619 107.723 40.4531 107.922 40.6918C108.121 40.9304 108.379 41.1122 108.697 41.2372C109.016 41.3594 109.371 41.4205 109.763 41.4205C110.197 41.4205 110.584 41.348 110.922 41.2031C111.263 41.0554 111.53 40.8509 111.723 40.5895C111.919 40.3253 112.017 40.0185 112.017 39.669C112.017 39.3736 111.94 39.1264 111.787 38.9276C111.634 38.7259 111.419 38.5568 111.143 38.4205C110.871 38.2841 110.554 38.1634 110.193 38.0582L109.149 37.7514C108.464 37.5469 107.933 37.2642 107.555 36.9034C107.178 36.5426 106.989 36.0824 106.989 35.5227C106.989 35.054 107.114 34.642 107.364 34.2869C107.616 33.929 107.957 33.6506 108.386 33.4517C108.818 33.25 109.303 33.1491 109.839 33.1491C110.382 33.1491 110.862 33.2486 111.28 33.4474C111.697 33.6463 112.028 33.9205 112.273 34.2699C112.52 34.6165 112.652 35.0114 112.669 35.4545H111.898ZM117.611 36.6818V37.2869L114.317 38.3778V37.7685L117.611 36.6818ZM115.182 42V33.2727H115.975V41.2841H120.134V42H115.182ZM128.379 33.2727H129.176V39.0511C129.176 39.6449 129.037 40.1761 128.758 40.6449C128.48 41.1108 128.092 41.4787 127.595 41.7486C127.101 42.0156 126.525 42.1491 125.869 42.1491C125.216 42.1491 124.64 42.0142 124.143 41.7443C123.646 41.4744 123.258 41.1065 122.98 40.6406C122.701 40.1747 122.562 39.6449 122.562 39.0511V33.2727H123.359V38.9957C123.359 39.4588 123.463 39.8722 123.67 40.2358C123.878 40.5966 124.169 40.8807 124.544 41.0881C124.922 41.2955 125.363 41.3991 125.869 41.3991C126.375 41.3991 126.816 41.2955 127.194 41.0881C127.572 40.8807 127.863 40.5966 128.068 40.2358C128.275 39.8722 128.379 39.4588 128.379 38.9957V33.2727ZM131.747 42V41.3991L136.592 33.9886H131.721V33.2727H137.542V33.8736L132.693 41.2841H137.585V42H131.747ZM134.64 32.1477C134.487 32.1477 134.353 32.0952 134.24 31.9901C134.129 31.8821 134.073 31.7528 134.073 31.6023C134.073 31.4517 134.129 31.3239 134.24 31.2188C134.353 31.1108 134.487 31.0568 134.64 31.0568C134.796 31.0568 134.93 31.1108 135.041 31.2188C135.154 31.3239 135.211 31.4517 135.211 31.6023C135.211 31.7528 135.154 31.8821 135.041 31.9901C134.93 32.0952 134.796 32.1477 134.64 32.1477ZM140.11 42V33.2727H143.054C143.623 33.2727 144.096 33.3722 144.474 33.571C144.854 33.7699 145.14 34.0412 145.33 34.3849C145.52 34.7287 145.616 35.1193 145.616 35.5568C145.616 35.9205 145.554 36.2315 145.432 36.4901C145.31 36.7486 145.144 36.9574 144.934 37.1165C144.724 37.2756 144.489 37.3906 144.231 37.4616V37.5298C144.512 37.5497 144.785 37.6491 145.049 37.8281C145.313 38.0043 145.53 38.2514 145.701 38.5696C145.871 38.8878 145.956 39.2685 145.956 39.7116C145.956 40.152 145.858 40.5455 145.662 40.892C145.466 41.2358 145.165 41.5071 144.759 41.706C144.356 41.902 143.841 42 143.216 42H140.11ZM140.907 41.2841H143.216C143.89 41.2841 144.387 41.1349 144.708 40.8366C145.032 40.5384 145.194 40.1634 145.194 39.7116C145.194 39.3793 145.113 39.0781 144.951 38.8082C144.792 38.5355 144.566 38.3196 144.273 38.1605C143.983 38.0014 143.643 37.9219 143.25 37.9219H140.907V41.2841ZM140.907 37.2145H143.127C143.471 37.2145 143.772 37.1435 144.03 37.0014C144.289 36.8594 144.491 36.6634 144.635 36.4134C144.78 36.1634 144.853 35.8778 144.853 35.5568C144.853 35.0937 144.702 34.7173 144.401 34.4276C144.1 34.1349 143.651 33.9886 143.054 33.9886H140.907V37.2145ZM148.492 42H147.657L150.832 33.2727H151.684L154.859 42H154.023L151.288 34.3082H151.228L148.492 42ZM149.093 38.6548H153.423V39.3707H149.093V38.6548Z" fill="white"/>
<defs>
<radialGradient id="paint0_radial_1_19" cx="0" cy="0" r="1" gradientUnits="userSpaceOnUse" gradientTransform="translate(219.5 68) rotate(-25.292) scale(50.3239 275.914)">
<stop stop-color="#9F0ED2"/>
<stop offset="1" stop-color="#330185"/>
</radialGradient>
<radialGradient id="paint1_radial_1_19" cx="0" cy="0" r="1" gradientUnits="userSpaceOnUse" gradientTransform="translate(242.125 110.077) rotate(161.215) scale(225.776 137.663)">
<stop stop-color="#DE15FF"/>
<stop offset="0.1875" stop-color="#BE11E8"/>
<stop offset="1" stop-color="#320085"/>
</radialGradient>
</defs>
</svg>
