<svg width="270" height="100" fill="none" xmlns="http://www.w3.org/2000/svg"><path d="m116.534 56-1.994.16.148 1.84h1.846v-2Zm-.639-1.33-1.294 1.526.006.004.005.005 1.283-1.535Zm-2.915-.298.695 1.876.009-.004.01-.003-.714-1.869Zm-.682.469-1.605-1.193 1.605 1.193Zm-.23.682 1.997.108.002-.032.001-.032-2-.044Zm.111.57-1.789.895.018.036.02.036 1.751-.966Zm.426.452-1.153 1.634.016.012.016.011 1.121-1.657Zm1.815.648.42-1.955-.009-.002-.008-.002-.403 1.96Zm1.432.307-.419 1.956h.005l.414-1.956Zm4.168 1.994-1.441 1.387.009.01 1.432-1.397Zm.963 1.517-1.88.684.003.008.004.008 1.873-.7Zm.324 1.841 2 .01v-.027l-2 .017Zm-.861 2.915 1.627 1.163-1.627-1.163Zm-2.437 1.815-.731-1.861-.004.001.735 1.86Zm-7.765-.05-.741 1.857.003.001.738-1.859Zm-2.625-2.072-1.668 1.103.007.011 1.661-1.114Zm-.937-3.596v-2h-2.008l.008 2.007 2-.007Zm4.5 0 1.997-.107-.101-1.893h-1.896v2Zm.4 1.346-1.672 1.098 1.672-1.098Zm1.006.827-.797 1.834.009.004.788-1.838Zm2.83.094.688 1.877-.688-1.877Zm.775-.52 1.566 1.244-1.566-1.244Zm.273-.759 2 .04v-.041l-.001-.041-1.999.042Zm-.264-.699-1.558 1.255.019.024.02.023 1.519-1.302Zm-.818-.545-.795 1.835.012.005.011.005.772-1.845Zm-1.543-.46.428-1.954-.006-.001-.422 1.955Zm-1.739-.375-.424 1.954h.003l.421-1.954Zm-3.656-1.68-1.331 1.494.011.009 1.32-1.502Zm-1.321-3.23 2 .009v-.019l-2 .01Zm.886-2.906-1.622-1.17-.001.003 1.623 1.167Zm2.498-1.951-.8-1.834-.004.002.804 1.832Zm7.329.008-.834 1.818.834-1.818Zm2.378 1.994-1.678 1.09.004.006.005.006 1.669-1.102Zm.852 2.992v2h2.01l-.01-2.01-2 .01Zm-2.54-.16c-.082-1.016-.496-1.99-1.35-2.704l-2.566 3.069a.293.293 0 0 1-.074-.097c-.016-.033-.004-.026.002.052l3.988-.32Zm-1.339-2.695c-.891-.755-2.018-.952-3.007-.952v4c.252 0 .398.027.467.046.063.018.025.019-.048-.043l2.588-3.05Zm-3.007-.952c-.63 0-1.296.074-1.915.31l1.427 3.738c-.004.001.03-.012.116-.025.085-.013.207-.023.372-.023v-4Zm-1.897.304c-.555.206-1.15.556-1.592 1.151l3.211 2.386c-.147.197-.287.235-.229.214l-1.39-3.751Zm-1.592 1.151a3.155 3.155 0 0 0-.624 1.83l3.999.09a.853.853 0 0 1-.164.466l-3.211-2.386Zm-.622 1.767a3.12 3.12 0 0 0 .319 1.573l3.578-1.789a.876.876 0 0 1 .097.432l-3.994-.216Zm.357 1.645a3.37 3.37 0 0 0 1.024 1.12l2.306-3.269c-.007-.005.084.057.172.217l-3.502 1.932Zm1.056 1.142c.373.252.783.439 1.188.584l1.35-3.765a1.485 1.485 0 0 1-.296-.132l-2.242 3.313Zm1.188.584a9.93 9.93 0 0 0 1.346.366l.805-3.918a5.995 5.995 0 0 1-.801-.213l-1.35 3.765Zm1.329.363 1.432.307.838-3.912-1.431-.306-.839 3.91Zm1.437.308c.85.18 1.513.404 2.018.65l1.753-3.595c-.87-.424-1.86-.74-2.942-.969l-.829 3.914Zm2.018.65c.52.254.878.52 1.123.774l2.882-2.774c-.631-.655-1.397-1.178-2.252-1.595l-1.753 3.595Zm1.132.783c.249.256.412.521.515.805l3.76-1.367a6.225 6.225 0 0 0-1.411-2.23l-2.864 2.792Zm.522.822c.12.321.193.701.197 1.157l4-.034a7.343 7.343 0 0 0-.451-2.524l-3.746 1.4Zm.197 1.13c-.004.809-.2 1.36-.488 1.763l3.254 2.325c.849-1.188 1.226-2.58 1.234-4.068l-4-.02Zm-.488 1.763c-.309.432-.785.819-1.541 1.116l1.461 3.723c1.358-.533 2.507-1.356 3.334-2.514l-3.254-2.325Zm-1.545 1.117c-.757.299-1.759.483-3.058.483v4c1.655 0 3.182-.232 4.527-.762l-1.469-3.721Zm-3.058.483c-1.325 0-2.388-.197-3.234-.533l-1.476 3.718c1.416.562 3 .814 4.71.814v-4Zm-3.231-.531c-.781-.312-1.322-.758-1.705-1.328l-3.322 2.228c.868 1.294 2.077 2.229 3.545 2.815l1.482-3.715Zm-1.697-1.316c-.349-.529-.602-1.316-.606-2.502l-4 .015c.007 1.735.379 3.345 1.269 4.692l3.337-2.205Zm-2.606-.494h4.5v-4h-4.5v4Zm2.503-1.894c.043.807.253 1.617.725 2.338l3.344-2.195c-.004-.007-.061-.094-.075-.356l-3.994.213Zm.725 2.338a4.231 4.231 0 0 0 1.881 1.563l1.594-3.669c-.105-.045-.123-.078-.131-.09l-3.344 2.196Zm1.89 1.567c.743.319 1.544.443 2.348.443v-4c-.401 0-.64-.063-.772-.12l-1.576 3.677Zm2.348.443c.655 0 1.329-.079 1.958-.31l-1.377-3.755c-.052.02-.225.065-.581.065v4Zm1.958-.31c.59-.216 1.192-.573 1.653-1.153l-3.131-2.489c.108-.136.193-.147.101-.113l1.377 3.755Zm1.653-1.153a3.23 3.23 0 0 0 .707-1.963l-4-.08a.773.773 0 0 1 .162-.446l3.131 2.49Zm.706-2.045a3.075 3.075 0 0 0-.745-1.958l-3.037 2.603a.91.91 0 0 1-.217-.56l3.999-.085Zm-.706-1.911c-.46-.571-1.075-.915-1.604-1.136l-1.543 3.69a1.174 1.174 0 0 1 .152.075c.002.001-.009-.006-.03-.025a.774.774 0 0 1-.09-.095l3.115-2.51Zm-1.581-1.127c-.547-.236-1.2-.422-1.909-.578l-.857 3.907c.588.13.963.25 1.177.342l1.589-3.67Zm-1.915-.58-1.739-.374-.843 3.91 1.738.375.844-3.91Zm-1.737-.374c-1.319-.286-2.194-.73-2.76-1.226l-2.64 3.004c1.218 1.07 2.781 1.747 4.552 2.131l.848-3.909Zm-2.749-1.218c-.393-.35-.656-.843-.652-1.728l-4-.017c-.008 1.843.61 3.502 1.991 4.732l2.661-2.987Zm-.652-1.747c-.004-.723.181-1.27.51-1.728l-3.247-2.335c-.865 1.202-1.271 2.591-1.263 4.084l4-.02Zm.509-1.726c.367-.51.9-.949 1.678-1.29l-1.607-3.663c-1.347.59-2.479 1.453-3.316 2.614l3.245 2.34Zm1.674-1.288c.774-.338 1.718-.532 2.874-.532v-4c-1.606 0-3.11.271-4.473.865l1.599 3.667Zm2.874-.532c1.19 0 2.112.2 2.822.525l1.668-3.636c-1.346-.617-2.862-.89-4.49-.89v4Zm2.822.525c.722.331 1.206.759 1.534 1.265l3.356-2.177c-.785-1.21-1.887-2.111-3.222-2.724l-1.668 3.636Zm1.543 1.278c.324.49.517 1.099.521 1.9l4-.02c-.007-1.483-.382-2.87-1.183-4.083l-3.338 2.203Zm2.521-.11h-4.534v4h4.534v-4Zm1.084.364h-2v2h2v-2Zm0-3.819v-2h-2v2h2Zm15.171 0h2v-2h-2v2Zm0 3.819v2h2v-2h-2Zm-5.25 0v-2h-2v2h2Zm0 13.636v2h2v-2h-2Zm-4.671 0h-2v2h2v-2Zm0-13.636h2v-2h-2v2Zm-3.25 0v-3.819h-4v3.819h4Zm-2-1.819h15.171v-4h-15.171v4Zm13.171-2v3.819h4v-3.819h-4Zm2 1.819h-5.25v4h5.25v-4Zm-7.25 2V68h4V54.364h-4Zm2 11.636h-4.671v4h4.671v-4Zm-2.671 2V54.364h-4V68h4Zm-2-15.636h-5.25v4h5.25v-4ZM138.626 68h-2v2h2v-2Zm0-17.455v-2h-2v2h2Zm13.202 2.745 1.708-1.04-1.708 1.04Zm-.026 6.35-1.678-1.09-.005.008 1.683 1.081Zm-2.327 1.942-.801-1.832-.004.002.805 1.83Zm-7.985.657h-2v2h2v-2Zm0-3.682v-2h-2v2h2Zm4.968-.205.657 1.89.008-.003.008-.003-.673-1.884Zm.912-.673-1.635-1.151-.008.01-.007.01 1.65 1.131Zm0-2.42-1.668 1.102.011.017.012.017 1.645-1.137Zm-.912-.7-.728 1.863.016.007.016.005.696-1.874Zm-3.093-.23v-2h-2v2h2Zm0 13.671v2h2v-2h-2Zm5.488-8.011 1.757-.957-.569-1.043h-1.188v2ZM153.217 68v2h3.367l-1.611-2.957-1.756.957Zm-5.148 0-1.766.94.565 1.06h1.201v-2Zm-4.261-8.011v-2h-3.329l1.563 2.939 1.766-.94ZM140.626 68V50.545h-4V68h4Zm-2-15.455h7.534v-4h-7.534v4Zm7.534 0c1.053 0 1.877.191 2.527.507l1.747-3.598c-1.293-.628-2.736-.909-4.274-.909v4Zm2.527.507c.641.311 1.101.733 1.432 1.278l3.417-2.08c-.748-1.228-1.8-2.164-3.102-2.796l-1.747 3.598Zm1.432 1.278c.315.517.518 1.204.518 2.147h4c0-1.534-.336-2.972-1.101-4.227l-3.417 2.08Zm.518 2.147c0 .95-.209 1.605-.513 2.073l3.356 2.178c.809-1.248 1.157-2.7 1.157-4.25h-4Zm-.518 2.081c-.322.503-.78.901-1.445 1.192l1.603 3.665c1.335-.584 2.428-1.481 3.208-2.695l-3.366-2.162Zm-1.449 1.194c-.69.303-1.568.487-2.68.487v4c1.546 0 2.993-.255 4.291-.826l-1.611-3.661Zm-2.68.487h-4.5v4h4.5v-4Zm-2.5 2v-3.682h-4v3.682h4Zm-2-1.682h3.545v-4h-3.545v4Zm3.545 0c.709 0 1.419-.086 2.08-.316l-1.314-3.778c-.122.043-.361.094-.766.094v4Zm2.096-.321c.739-.264 1.409-.726 1.889-1.427l-3.3-2.26a.439.439 0 0 1 .077-.08c.022-.017.025-.013-.011 0l1.345 3.767Zm1.875-1.406c.518-.736.688-1.576.688-2.353h-4a.628.628 0 0 1-.012.151l.011-.03a.423.423 0 0 1 .042-.07l3.271 2.302Zm.688-2.353c0-.779-.169-1.618-.678-2.355l-3.291 2.273c-.036-.052-.046-.088-.045-.084a.708.708 0 0 1 .014.166h4Zm-.655-2.321c-.47-.712-1.136-1.193-1.884-1.471l-1.393 3.75c.032.011.028.015.006-.002a.23.23 0 0 1-.035-.033.257.257 0 0 1-.031-.039l3.337-2.205Zm-1.852-1.459c-.686-.268-1.422-.367-2.152-.367v4c.384 0 .596.054.695.092l1.457-3.725Zm-2.152-.367h-1.67v4h1.67v-4Zm-3.67 2V68h4V54.33h-4Zm2 11.67h-4.739v4h4.739v-4Zm3.732-5.055 4.363 8.012 3.513-1.914-4.363-8.011-3.513 1.913Zm6.12 5.055h-5.148v4h5.148v-4Zm-3.382 1.06-4.261-8.01-3.532 1.878 4.261 8.011 3.532-1.878Zm-6.027-5.071h5.045v-4h-5.045v4Zm26.145 2.201 1.739.989.001-.004-1.74-.985Zm-3.06 3.026.938 1.766.006-.003-.944-1.763Zm-8.608-.009-.953 1.759.009.005.944-1.764Zm-3.051-3.034-1.744.98.005.009 1.739-.989Zm0-9.81-1.741-.984-.001.002 1.742.983Zm3.051-3.025.941 1.765.003-.002-.944-1.763Zm8.608 0-.944 1.763.006.004.938-1.767Zm3.06 3.026-1.741.985.002.003 1.739-.988Zm-4.159 2.267-1.871.707.003.009.004.009 1.864-.725Zm-1.219-1.637-1.149 1.637.01.007.01.007 1.129-1.65Zm-3.963 0 1.137 1.645.004-.002-1.141-1.643Zm-1.219 1.637-1.866-.72-.003.008 1.869.712Zm0 5.292-1.871.707.004.01.003.008 1.864-.725Zm1.219 1.637-1.149 1.636.009.007.01.007 1.13-1.65Zm3.963 0 1.137 1.645.004-.003-1.141-1.642Zm1.219-1.637-1.866-.72-.003.008 1.869.712Zm3.292-2.65c0 1.688-.328 2.967-.874 3.932l3.481 1.97c.966-1.705 1.393-3.704 1.393-5.902h-4Zm-.872 3.93c-.579 1.018-1.331 1.75-2.265 2.25l1.888 3.526c1.634-.875 2.922-2.16 3.855-3.8l-3.478-1.977Zm-2.259 2.246c-.971.516-2.076.79-3.357.79v4c1.877 0 3.636-.409 5.233-1.257l-1.876-3.532Zm-3.357.79c-1.293 0-2.401-.277-3.369-.795l-1.888 3.527c1.601.857 3.367 1.268 5.257 1.268v-4Zm-3.36-.79c-.932-.505-1.684-1.242-2.265-2.264l-3.478 1.977c.931 1.636 2.212 2.923 3.837 3.804l1.906-3.517Zm-2.26-2.255c-.544-.968-.869-2.244-.869-3.921h-4c0 2.186.425 4.177 1.381 5.88l3.488-1.96Zm-.869-3.921c0-1.691.326-2.968.867-3.927l-3.484-1.965c-.959 1.7-1.383 3.696-1.383 5.892h4Zm.866-3.924c.58-1.025 1.328-1.754 2.251-2.246l-1.882-3.53c-1.634.872-2.919 2.16-3.851 3.806l3.482 1.97Zm2.254-2.248c.968-.518 2.076-.794 3.369-.794v-4c-1.89 0-3.656.41-5.257 1.268l1.888 3.526Zm3.369-.794c1.278 0 2.381.275 3.351.794l1.888-3.526c-1.598-.856-3.359-1.268-5.239-1.268v4Zm3.357.797c.929.494 1.678 1.222 2.257 2.245l3.481-1.97c-.932-1.648-2.222-2.937-3.862-3.807l-1.876 3.532Zm2.259 2.248c.544.957.872 2.232.872 3.92h4c0-2.197-.427-4.195-1.394-5.897l-3.478 1.977Zm-.003 3.92c0-1.209-.159-2.352-.553-3.366l-3.728 1.45c.162.417.281 1.035.281 1.917h4Zm-.546-3.348c-.391-1.035-1.026-1.94-1.961-2.58l-2.258 3.3c.144.1.322.285.477.694l3.742-1.414Zm-1.941-2.566c-.934-.656-2.016-.926-3.126-.926v4c.457 0 .693.105.828.2l2.298-3.274Zm-3.126-.926c-1.112 0-2.192.27-3.127.92l2.282 3.285c.144-.1.388-.205.845-.205v-4Zm-3.124.917c-.923.639-1.552 1.539-1.947 2.562l3.732 1.44c.162-.42.345-.611.49-.712l-2.275-3.29Zm-1.95 2.57c-.384 1.01-.54 2.148-.54 3.354h4c0-.885.117-1.508.278-1.93l-3.738-1.424Zm-.54 3.354c0 1.206.156 2.345.538 3.357l3.742-1.414c-.163-.43-.28-1.06-.28-1.943h-4Zm.545 3.375c.396 1.017 1.023 1.909 1.934 2.548l2.298-3.273c-.157-.11-.343-.31-.504-.725l-3.728 1.45Zm1.953 2.562c.934.64 2.01.904 3.116.904v-4c-.463 0-.711-.105-.857-.205l-2.259 3.301Zm3.116.904c1.104 0 2.182-.264 3.114-.91l-2.275-3.29c-.135.094-.376.2-.839.2v4Zm3.118-.912c.923-.64 1.555-1.538 1.947-2.567l-3.738-1.424c-.154.404-.334.597-.491.706l2.282 3.285Zm1.944-2.559c.392-1.016.551-2.16.551-3.37h-4c0 .88-.119 1.504-.283 1.93l3.732 1.44Zm20.241-12.098h2v-2h-2v2Zm0 17.455v2h2v-2h-2Zm-3.955 0-1.647 1.133.596.867h1.051v-2Zm-6.306-9.17 1.648-1.134-.596-.866h-1.052v2Zm-.103 0v-2h-2v2h2Zm0 9.17v2h2v-2h-2Zm-4.738 0h-2v2h2v-2Zm0-17.455v-2h-2v2h2Zm4.022 0 1.655-1.123-.595-.877h-1.06v2Zm6.205 9.137-1.655 1.123.596.877h1.059v-2Zm.136 0v2h2v-2h-2Zm0-9.137v-2h-2v2h2Zm2.739 0V68h4V50.545h-4Zm2 15.455h-3.955v4h3.955v-4Zm-2.307.867-6.306-9.17-3.296 2.266 6.307 9.17 3.295-2.266Zm-7.954-10.038h-.103v4h.103v-4Zm-2.103 2V68h4v-9.17h-4Zm2 7.171h-4.738v4h4.738v-4Zm-2.738 2V50.545h-4V68h4Zm-2-15.455h4.022v-4h-4.022v4Zm2.368-.876 6.204 9.136 3.31-2.247-6.205-9.136-3.309 2.247Zm7.859 10.013h.136v-4h-.136v4Zm2.136-2v-9.137h-4v9.137h4Zm-2-7.137h4.739v-4h-4.739v4Zm21.603-2h2v-2h-2v2Zm0 17.455v2h2v-2h-2Zm-3.955 0-1.648 1.133.596.867h1.052v-2Zm-6.307-9.17 1.648-1.134-.596-.866h-1.052v2Zm-.102 0v-2h-2v2h2Zm0 9.17v2h2v-2h-2Zm-4.739 0h-2v2h2v-2Zm0-17.455v-2h-2v2h2Zm4.023 0 1.655-1.123-.595-.877h-1.06v2Zm6.205 9.137-1.655 1.123.595.877h1.06v-2Zm.136 0v2h2v-2h-2Zm0-9.137v-2h-2v2h2Zm2.739 0V68h4V50.545h-4Zm2 15.455h-3.955v4h3.955v-4Zm-2.307.867-6.307-9.17-3.295 2.266 6.306 9.17 3.296-2.266Zm-7.955-10.038h-.102v4h.102v-4Zm-2.102 2V68h4v-9.17h-4Zm2 7.171h-4.739v4h4.739v-4Zm-2.739 2V50.545h-4V68h4Zm-2-15.455h4.023v-4h-4.023v4Zm2.369-.876 6.204 9.136 3.309-2.247-6.204-9.136-3.309 2.247Zm7.859 10.013h.136v-4h-.136v4Zm2.136-2v-9.137h-4v9.137h4Zm-2-7.137h4.739v-4h-4.739v4Zm11.239-2h2v-2h-2v2Zm0 17.455v2h2v-2h-2Zm-4.739 0h-2v2h2v-2Zm0-17.455v-2h-2v2h2Zm2.739 0V68h4V50.545h-4Zm2 15.455h-4.739v4h4.739v-4Zm-2.739 2V50.545h-4V68h4Zm-2-15.455h4.739v-4h-4.739v4Zm22.8 4.546v2h2.175l-.182-2.167-1.993.167Zm-4.807 0-1.992.17.156 1.83h1.836v-2Zm-.272-1.083-1.832.804.006.013.006.014 1.82-.83Zm-.597-.835-1.381 1.447.017.016.017.016 1.347-1.479Zm-.912-.545-.686 1.879.013.004.014.005.659-1.888Zm-3.239.383-1.148-1.637-.008.005 1.156 1.632Zm-1.244 1.662-1.861-.732-.005.012 1.866.72Zm.009 5.284-1.861.733.003.009.004.009 1.854-.75Zm1.252 1.62-1.109 1.664.006.004.006.004 1.097-1.672Zm3.145.375.595 1.91.014-.005.014-.005-.623-1.9Zm.904-.486 1.27 1.545-1.27-1.545Zm.622-.759-1.755-.96-.006.012 1.761.948Zm.332-1.014.014-2-1.732-.012-.259 1.713 1.977.3Zm4.807.034 1.994.154.165-2.139-2.145-.015-.014 2Zm-.622 2.259 1.81.85.002-.004-1.812-.846Zm-1.526 2.113 1.402 1.427-1.402-1.427Zm-10.108 1.108-.953 1.758.003.002.95-1.76Zm-3.008-3.034-1.753.963.003.005 1.75-.968Zm.025-9.81 1.742.983.002-.003-1.744-.98Zm3.035-3.025.944 1.763.006-.003-.95-1.76Zm7.304-.58.618-1.902-.618 1.902Zm2.437 1.322-1.277 1.54.008.005 1.269-1.545Zm1.688 2.122-1.784.904 1.784-.904Zm.775.889h-4.807v4h4.807v-4Zm-2.814 1.83a5.238 5.238 0 0 0-.446-1.742l-3.639 1.66c.042.092.083.226.1.423l3.985-.342Zm-.434-1.716a4.45 4.45 0 0 0-1.081-1.51l-2.694 2.957c.044.04.08.087.112.16l3.663-1.607Zm-1.047-1.478a4.49 4.49 0 0 0-1.634-.987l-1.318 3.776c.115.04.166.08.19.104l2.762-2.893Zm-1.607-.978a5.533 5.533 0 0 0-1.905-.317v4c.265 0 .433.038.533.075l1.372-3.758Zm-1.905-.317c-1.129 0-2.222.28-3.168.942l2.296 3.275c.157-.11.411-.217.872-.217v-4Zm-3.176.947c-.911.646-1.546 1.537-1.949 2.562l3.722 1.465c.165-.419.36-.635.539-.763l-2.312-3.264Zm-1.954 2.574c-.39 1.01-.552 2.134-.552 3.32h4c0-.837.117-1.447.284-1.88l-3.732-1.44Zm-.552 3.32c0 1.23.162 2.392.566 3.417l3.722-1.465c-.165-.419-.288-1.047-.288-1.952h-4Zm.573 3.435c.413 1.02 1.061 1.909 1.997 2.533l2.219-3.328c-.155-.104-.342-.295-.509-.706l-3.707 1.5Zm2.009 2.54c.925.608 1.979.866 3.066.866v-4c-.447 0-.706-.1-.871-.21l-2.195 3.345Zm3.066.866c.599 0 1.197-.074 1.771-.253l-1.189-3.819c-.12.037-.306.072-.582.072v4Zm1.799-.262a4.754 4.754 0 0 0 1.551-.841l-2.54-3.09a.782.782 0 0 1-.257.13l1.246 3.801Zm1.551-.841a4.528 4.528 0 0 0 1.113-1.355l-3.522-1.897a.524.524 0 0 1-.131.162l2.54 3.09Zm1.106-1.344a5.046 5.046 0 0 0 .556-1.674l-3.955-.6a1.05 1.05 0 0 1-.11.354l3.509 1.92Zm-1.436.026 4.807.034.028-4-4.807-.034-.028 4Zm2.827-2.12c-.036.468-.17.987-.44 1.567l3.624 1.692c.446-.955.726-1.941.804-2.951l-3.988-.307Zm-.438 1.562a5.351 5.351 0 0 1-1.118 1.538l2.804 2.853a9.328 9.328 0 0 0 1.934-2.69l-3.62-1.701Zm-1.117 1.538c-.443.435-1.023.817-1.78 1.124l1.505 3.707c1.175-.477 2.214-1.13 3.078-1.978l-2.803-2.853Zm-1.78 1.124c-.679.276-1.537.442-2.614.442v4c1.479 0 2.866-.227 4.119-.735l-1.505-3.707Zm-2.614.442c-1.307 0-2.412-.278-3.362-.791l-1.901 3.52c1.595.86 3.365 1.27 5.263 1.27v-4Zm-3.359-.79c-.912-.494-1.647-1.222-2.212-2.244l-3.5 1.936c.912 1.649 2.182 2.944 3.805 3.824l1.907-3.516Zm-2.209-2.238c-.533-.972-.853-2.255-.853-3.938h-4c0 2.18.414 4.164 1.347 5.863l3.506-1.925Zm-.853-3.938c0-1.691.327-2.968.867-3.927l-3.484-1.965c-.959 1.7-1.383 3.696-1.383 5.892h4Zm.869-3.93c.576-1.024 1.319-1.751 2.235-2.242l-1.889-3.526c-1.629.873-2.909 2.163-3.833 3.81l3.487 1.958Zm2.241-2.245c.957-.517 2.046-.791 3.311-.791v-4c-1.872 0-3.623.413-5.212 1.271l1.901 3.52Zm3.311-.791c.919 0 1.722.125 2.424.353l1.237-3.803c-1.15-.374-2.376-.55-3.661-.55v4Zm2.424.353a5.32 5.32 0 0 1 1.779.96l2.554-3.08a9.318 9.318 0 0 0-3.096-1.684l-1.237 3.804Zm1.787.965c.475.39.866.876 1.173 1.48l3.568-1.807a8.528 8.528 0 0 0-2.203-2.764l-2.538 3.091Zm1.173 1.48c.292.579.493 1.285.566 2.153l3.986-.334c-.109-1.303-.425-2.523-.984-3.626l-3.568 1.808ZM231.064 68h-2v2h2v-2Zm0-2.625-1.6-1.2-.4.534v.666h2Zm8.25-11.011 1.601 1.199 2.397-3.2h-3.998v2Zm-8.216 0h-2v2h2v-2Zm0-3.819v-2h-2v2h2Zm14.25 0h2v-2h-2v2Zm0 2.625 1.601 1.2.399-.533v-.667h-2Zm-8.25 11.012-1.6-1.2-2.397 3.2h3.997v-2Zm8.216 0h2v-2h-2v2Zm0 3.818v2h2v-2h-2Zm-12.25 0v-2.625h-4V68h4Zm-.399-1.426 8.25-11.011-3.201-2.399-8.25 11.012 3.201 2.398Zm6.649-14.21h-8.216v4h8.216v-4Zm-6.216 2v-3.819h-4v3.819h4Zm-2-1.819h14.25v-4h-14.25v4Zm12.25-2v2.625h4v-2.625h-4Zm.4 1.426-8.25 11.012 3.201 2.398 8.25-11.011-3.201-2.399Zm-6.65 14.21h8.216v-4h-8.216v4Zm6.216-2V68h4v-3.818h-4Zm2 1.819h-14.25v4h14.25v-4Zm1.15-15.455v-2h-3.34l1.577 2.945 1.763-.945Zm5.284 0 1.803-.866-.545-1.134h-1.258v2Zm3.409 7.091-1.802.867.545 1.133h1.257v-2Zm.137 0v2h1.257l.545-1.133-1.802-.867Zm3.409-7.09v-2h-1.258l-.545 1.133 1.803.866Zm5.284 0 1.763.944 1.577-2.945h-3.34v2Zm-6.409 11.965-1.763-.944-.237.443v.501h2Zm0 5.489v2h2v-2h-2Zm-4.705 0h-2v2h2v-2Zm0-5.489h2v-.502l-.237-.442-1.763.944Zm-6.409-9.966h5.284v-4h-5.284v4Zm3.482-1.133 3.409 7.091 3.605-1.733-3.409-7.091-3.605 1.733Zm5.211 8.224h.137v-4h-.137v4Zm1.939-1.133 3.409-7.091-3.605-1.733-3.409 7.09 3.605 1.734Zm1.607-5.958h5.284v-4h-5.284v4Zm3.521-2.944-6.409 11.966 3.526 1.889 6.409-11.966-3.526-1.889Zm-6.646 12.91V68h4v-5.489h-4Zm2 3.489h-4.705v4h4.705v-4Zm-2.705 2v-5.489h-4V68h4Zm-.237-6.433-6.409-11.966-3.526 1.889 6.409 11.966 3.526-1.889Z" fill="url(#a)"/><mask id="b" style="mask-type:alpha" maskUnits="userSpaceOnUse" x="0" y="0" width="241" height="100"><path fill-rule="evenodd" clip-rule="evenodd" d="M129.136 18.717c24.41 3.344 27.428-5.622 47.118 2.226 17.871 7.122 53.863 4.022 62.973 14.412 8.913 10.164-18.354 18.562-24.755 29.174-6.668 11.054-35.959 11.028-53.763 18.524-17.751 7.473-14.347 14.99-37.009 12.202-19.09-2.348-17.886-3.757-35.242-8.32-17.888-1.359-24.419 9.939-39.072 12.202-5.352 1.11-36.395 5.546-46.565-25.513-10.17-31.058 6.958-84.857 54.594-71.546 47.636 13.31 47.694 13.347 71.721 16.639Z" fill="#C4C4C4"/></mask><g mask="url(#b)"><rect x="-8" width="300" height="102.041" rx="51.02" fill="url(#c)"/><path fill-rule="evenodd" clip-rule="evenodd" d="M26.93 22h51.39a5.931 5.931 0 0 1 5.93 5.93v43.484a5.931 5.931 0 0 1-5.93 5.93H26.93a5.931 5.931 0 0 1-5.93-5.93V27.93A5.931 5.931 0 0 1 26.93 22Zm1.976 19.766h47.438V31.389c0-.816-.667-1.483-1.483-1.483H30.39c-.816 0-1.483.667-1.483 1.483v10.377Zm26.46 11.068h4.27c.785 0 1.422.638 1.422 1.423v2.847c0 .786-.637 1.423-1.423 1.423h-4.27v9.962c0 .786-.637 1.423-1.422 1.423h-2.846a1.423 1.423 0 0 1-1.424-1.423v-9.962h-4.269a1.423 1.423 0 0 1-1.423-1.423v-2.846c0-.786.637-1.424 1.423-1.424h4.27v-4.269c0-.786.637-1.423 1.422-1.423h2.847c.785 0 1.423.637 1.423 1.423v4.27Z" fill="#fff"/><path stroke="#fff" stroke-width=".5" d="M95.75 59V41"/></g><path d="M116.534 56c-.045-.568-.258-1.011-.639-1.33-.375-.318-.946-.477-1.713-.477-.489 0-.889.06-1.202.18-.307.113-.534.269-.682.468a1.166 1.166 0 0 0-.23.682c-.011.21.026.4.111.57.091.165.233.316.426.452.193.131.44.25.742.358a7.97 7.97 0 0 0 1.073.29l1.432.307c.966.205 1.793.474 2.48.81.688.335 1.25.73 1.688 1.184.437.45.758.955.963 1.517.21.563.318 1.176.324 1.841-.006 1.148-.293 2.12-.861 2.915-.568.796-1.381 1.4-2.437 1.815-1.052.415-2.316.623-3.793.623-1.517 0-2.841-.225-3.972-.674-1.125-.449-2-1.139-2.625-2.07-.619-.938-.931-2.137-.937-3.597h4.5c.028.534.162.983.4 1.346.239.364.574.64 1.006.827.438.187.957.281 1.56.281.505 0 .929-.062 1.27-.187.341-.125.599-.299.775-.52a1.23 1.23 0 0 0 .273-.759 1.081 1.081 0 0 0-.264-.699c-.165-.204-.438-.386-.818-.545-.381-.165-.895-.318-1.543-.46l-1.739-.375c-1.545-.336-2.764-.895-3.656-1.68-.886-.789-1.327-1.866-1.321-3.23-.006-1.107.29-2.076.886-2.906.603-.835 1.435-1.485 2.498-1.951 1.068-.466 2.292-.7 3.673-.7 1.409 0 2.628.237 3.656.708 1.028.472 1.821 1.137 2.378 1.994.562.853.847 1.85.852 2.992h-4.534Zm5.618-1.636v-3.819h15.171v3.819h-5.25V68h-4.671V54.364h-5.25ZM138.626 68V50.545h7.534c1.295 0 2.429.236 3.401.708.971.471 1.727 1.15 2.267 2.037.539.886.809 1.949.809 3.187 0 1.25-.278 2.304-.835 3.162-.551.858-1.327 1.506-2.327 1.943-.994.438-2.156.657-3.485.657h-4.5v-3.682h3.545c.557 0 1.031-.068 1.423-.205.398-.142.702-.366.912-.673.216-.307.324-.707.324-1.202 0-.5-.108-.906-.324-1.218-.21-.319-.514-.552-.912-.7-.392-.153-.866-.23-1.423-.23h-1.67V68h-4.739Zm10.227-8.011L153.217 68h-5.148l-4.261-8.011h5.045Zm22.233-.716c0 1.943-.378 3.582-1.133 4.917-.756 1.33-1.776 2.338-3.06 3.026-1.284.682-2.716 1.023-4.295 1.023-1.591 0-3.029-.344-4.313-1.032-1.278-.693-2.295-1.704-3.051-3.034-.75-1.335-1.125-2.968-1.125-4.9 0-1.944.375-3.58 1.125-4.91.756-1.335 1.773-2.343 3.051-3.025 1.284-.687 2.722-1.031 4.313-1.031 1.579 0 3.011.344 4.295 1.031 1.284.682 2.304 1.69 3.06 3.026.755 1.33 1.133 2.966 1.133 4.909Zm-4.875 0c0-1.046-.139-1.926-.417-2.642-.273-.722-.679-1.267-1.219-1.637-.534-.375-1.193-.562-1.977-.562s-1.446.187-1.986.562c-.534.37-.94.915-1.219 1.637-.273.716-.409 1.596-.409 2.642 0 1.045.136 1.929.409 2.65.279.716.685 1.262 1.219 1.637.54.369 1.202.554 1.986.554s1.443-.185 1.977-.554c.54-.375.946-.92 1.219-1.637.278-.721.417-1.605.417-2.65Zm21.69-8.728V68h-3.955l-6.306-9.17h-.103V68h-4.738V50.545h4.022l6.205 9.137h.136v-9.137h4.739Zm16.864 0V68h-3.955l-6.307-9.17h-.102V68h-4.739V50.545h4.023l6.205 9.137h.136v-9.137h4.739Zm6.5 0V68h-4.739V50.545h4.739Zm18.061 6.546h-4.807a3.276 3.276 0 0 0-.272-1.083 2.454 2.454 0 0 0-.597-.835 2.489 2.489 0 0 0-.912-.545 3.54 3.54 0 0 0-1.219-.196c-.795 0-1.468.193-2.02.58-.545.386-.96.94-1.244 1.661-.278.722-.418 1.588-.418 2.6 0 1.068.142 1.963.427 2.684.289.716.707 1.256 1.252 1.62.546.358 1.202.537 1.969.537.438 0 .83-.054 1.176-.162.347-.114.648-.276.904-.486.255-.21.463-.463.622-.759.165-.3.275-.639.332-1.014l4.807.034c-.057.739-.264 1.492-.622 2.259a7.347 7.347 0 0 1-1.526 2.113c-.653.642-1.463 1.16-2.429 1.552-.966.392-2.088.588-3.366.588-1.602 0-3.04-.344-4.313-1.032-1.267-.687-2.269-1.698-3.008-3.034-.733-1.335-1.1-2.968-1.1-4.9 0-1.944.375-3.58 1.125-4.91.75-1.335 1.762-2.343 3.035-3.025 1.272-.687 2.693-1.031 4.261-1.031 1.102 0 2.116.15 3.043.451a7.323 7.323 0 0 1 2.437 1.322 6.536 6.536 0 0 1 1.688 2.122c.426.84.684 1.804.775 2.889ZM231.064 68v-2.625l8.25-11.011h-8.216v-3.819h14.25v2.625l-8.25 11.012h8.216V68h-14.25Zm15.4-17.455h5.284l3.409 7.091h.137l3.409-7.09h5.284l-6.409 11.965V68h-4.705v-5.489l-6.409-11.966Zm-134.566-15.09a1.587 1.587 0 0 0-.644-1.16c-.38-.287-.859-.43-1.436-.43-.406 0-.764.07-1.074.209-.306.14-.548.332-.724.58a1.41 1.41 0 0 0-.26.835c0 .23.05.431.149.605.1.173.233.322.401.447a3 3 0 0 0 .562.316c.208.088.416.162.627.221l.92.264a6.6 6.6 0 0 1 .835.294c.279.12.533.27.763.452.233.179.419.4.558.66.142.26.213.57.213.934 0 .466-.12.885-.362 1.257-.241.372-.588.667-1.04.886-.451.216-.993.324-1.623.324-.594 0-1.11-.098-1.547-.294a2.51 2.51 0 0 1-1.031-.822 2.31 2.31 0 0 1-.422-1.215h.818c.028.344.142.635.341.874.199.238.457.42.775.545.319.122.674.183 1.066.183a2.92 2.92 0 0 0 1.159-.217c.341-.148.608-.352.801-.614a1.5 1.5 0 0 0 .294-.92 1.18 1.18 0 0 0-.23-.741 1.776 1.776 0 0 0-.644-.508 5.657 5.657 0 0 0-.95-.362l-1.044-.307c-.685-.204-1.216-.487-1.594-.848-.377-.36-.566-.82-.566-1.38 0-.469.125-.881.375-1.236a2.513 2.513 0 0 1 1.022-.835 3.396 3.396 0 0 1 1.453-.303c.543 0 1.023.1 1.441.298.417.2.748.473.993.823.247.346.379.741.396 1.184h-.771Zm5.713 1.227v.605l-3.294 1.09v-.608l3.294-1.087ZM115.182 42v-8.727h.793v8.011h4.159V42h-4.952Zm13.197-8.727h.797v5.778c0 .594-.139 1.125-.418 1.594a2.98 2.98 0 0 1-1.163 1.104c-.494.267-1.07.4-1.726.4-.653 0-1.229-.135-1.726-.405a2.98 2.98 0 0 1-1.163-1.103 3.033 3.033 0 0 1-.418-1.59v-5.778h.797v5.723c0 .463.104.876.311 1.24.208.36.499.645.874.852.378.207.819.311 1.325.311s.947-.104 1.325-.31c.378-.208.669-.492.874-.853.207-.364.311-.777.311-1.24v-5.723ZM131.747 42v-.6l4.845-7.411h-4.871v-.716h5.821v.6l-4.849 7.411h4.892V42h-5.838Zm2.893-9.852a.569.569 0 0 1-.4-.158.523.523 0 0 1-.167-.388c0-.15.056-.278.167-.383a.56.56 0 0 1 .4-.162c.156 0 .29.054.401.162a.52.52 0 0 1 0 .771.563.563 0 0 1-.401.158ZM140.11 42v-8.727h2.944c.569 0 1.042.1 1.42.298.38.199.666.47.856.814.19.344.286.734.286 1.172 0 .363-.062.674-.184.933a1.656 1.656 0 0 1-.498.627 2.06 2.06 0 0 1-.703.345v.068c.281.02.554.12.818.298.264.176.481.423.652.742.17.318.255.699.255 1.142 0 .44-.098.833-.294 1.18-.196.344-.497.615-.903.814-.403.196-.918.294-1.543.294h-3.106Zm.797-.716h2.309c.674 0 1.171-.15 1.492-.447.324-.299.486-.674.486-1.125 0-.333-.081-.634-.243-.904a1.71 1.71 0 0 0-.678-.648c-.29-.159-.63-.238-1.023-.238h-2.343v3.362Zm0-4.07h2.22c.344 0 .645-.07.903-.213.259-.142.461-.338.605-.588.145-.25.218-.535.218-.856 0-.463-.151-.84-.452-1.13-.301-.292-.75-.438-1.347-.438h-2.147v3.226ZM148.492 42h-.835l3.175-8.727h.852L154.859 42h-.836l-2.735-7.692h-.06L148.492 42Zm.601-3.345h4.33v.716h-4.33v-.716Z" fill="#fff"/><defs><radialGradient id="a" cx="0" cy="0" r="1" gradientUnits="userSpaceOnUse" gradientTransform="matrix(45.49996 -21.49996 117.87919 249.4655 219.5 68)"><stop stop-color="#9F0ED2"/><stop offset="1" stop-color="#330185"/></radialGradient><radialGradient id="c" cx="0" cy="0" r="1" gradientUnits="userSpaceOnUse" gradientTransform="rotate(161.215 111.958 75.064) scale(225.776 137.663)"><stop stop-color="#DE15FF"/><stop offset=".188" stop-color="#BE11E8"/><stop offset="1" stop-color="#320085"/></radialGradient></defs></svg>